<svg width="223" height="47" viewBox="0 0 223 47" fill="none" xmlns="http://www.w3.org/2000/svg">
<g clipPath="url(#clip0_2161_15533)">
<path d="M38.1593 9.27676C33.4342 9.27676 26.7587 9.67212 23.3473 13.0817C21.8704 14.5586 21.1328 16.9664 21.3243 19.6916C21.3492 20.0515 21.5885 20.3582 21.9324 20.4717C22.2746 20.5834 22.6505 20.4788 22.8846 20.204C24.7817 17.9718 27.1399 16.1828 29.8987 14.8867C30.1328 14.775 30.4094 14.7661 30.6611 14.8548C30.8828 14.9345 31.0565 15.0852 31.1469 15.2785C31.3348 15.6757 31.2745 16.1988 30.6505 16.493C30.615 16.5108 30.5831 16.5339 30.5477 16.5498C30.5353 16.5551 30.5211 16.5534 30.5104 16.5587C23.7126 19.7537 20.3705 25.3282 18.8527 31.0604C17.7463 23.8831 15.4095 19.6579 13.202 17.064C11.6046 14.9931 10.0336 13.8956 9.12585 13.2751C8.95738 13.1598 8.44858 12.8123 8.23756 12.6013C7.89182 12.2555 7.89182 11.6935 8.23756 11.3477C8.5833 11.0037 9.14713 11.0037 9.53185 11.3867C9.62585 11.4701 9.77653 11.5764 9.96802 11.7041L10.1258 11.8105C11.4095 12.6899 13.7996 14.3229 15.9201 17.8388C16.1098 18.1526 16.4769 18.3211 16.8332 18.2537C17.1949 18.1898 17.4786 17.9115 17.5496 17.5516C18.0123 15.1881 17.8049 11.681 15.6968 9.57288C12.2855 6.16507 5.61 5.76971 0.886629 5.76971C0.397188 5.76963 0 6.16682 0 6.65618C0 11.3813 0.39536 18.0568 3.80491 21.4682C5.22686 22.8901 7.42016 23.5284 9.59917 23.5284C11.3775 23.5284 13.1204 23.0833 14.4555 22.3121C16.2764 26.0851 17.7303 31.7216 17.7303 40.3439C17.7303 40.8332 18.1275 41.2304 18.6169 41.2304C19.1062 41.2304 19.5034 40.8332 19.5034 40.3439C19.5034 35.5336 20.3279 29.7606 23.3935 25.0089C24.6222 26.2092 26.7374 26.9699 29.0813 27.0408C29.1983 27.0443 29.3136 27.0461 29.4288 27.0461C31.81 27.0461 33.9146 26.2997 35.239 24.9734C38.6503 21.5621 39.0439 14.8866 39.0439 10.1614C39.0459 9.67212 38.6504 9.27676 38.1593 9.27676Z" fill="#00B307"/>
</g>
<path d="M56.1845 13.4565V21.4214H65.5551V25.0525H56.1845V33.3689H66.7264V37H51.7335V9.82536H66.7264V13.4565H56.1845ZM69.5537 26.2238C69.5537 24.0114 69.9962 22.0722 70.8812 20.4063C71.7922 18.7144 73.0417 17.4129 74.6294 16.5019C76.2172 15.5909 78.0393 15.1353 80.0956 15.1353C82.6985 15.1353 84.846 15.76 86.5379 17.0095C88.2558 18.2328 89.4141 19.9898 90.0128 22.2804H85.2104C84.8199 21.2132 84.1952 20.3803 83.3363 19.7816C82.4773 19.1829 81.3971 18.8836 80.0956 18.8836C78.2736 18.8836 76.8159 19.5343 75.7227 20.8358C74.6555 22.1112 74.1219 23.9072 74.1219 26.2238C74.1219 28.5405 74.6555 30.3495 75.7227 31.651C76.8159 32.9524 78.2736 33.6032 80.0956 33.6032C82.6725 33.6032 84.3774 32.4709 85.2104 30.2063H90.0128C89.3881 32.3928 88.2168 34.1368 86.4988 35.4382C84.7809 36.7137 82.6465 37.3514 80.0956 37.3514C78.0393 37.3514 76.2172 36.8959 74.6294 35.9849C73.0417 35.0478 71.7922 33.7463 70.8812 32.0805C69.9962 30.3885 69.5537 28.4363 69.5537 26.2238ZM102.609 37.3514C100.578 37.3514 98.7434 36.8959 97.1036 35.9849C95.4637 35.0478 94.1752 33.7463 93.2382 32.0805C92.3011 30.3885 91.8326 28.4363 91.8326 26.2238C91.8326 24.0374 92.3142 22.0982 93.2772 20.4063C94.2403 18.7144 95.5548 17.4129 97.2207 16.5019C98.8866 15.5909 100.748 15.1353 102.804 15.1353C104.86 15.1353 106.721 15.5909 108.387 16.5019C110.053 17.4129 111.368 18.7144 112.331 20.4063C113.294 22.0982 113.775 24.0374 113.775 26.2238C113.775 28.4103 113.281 30.3495 112.292 32.0414C111.303 33.7333 109.949 35.0478 108.231 35.9849C106.539 36.8959 104.665 37.3514 102.609 37.3514ZM102.609 33.486C103.754 33.486 104.821 33.2127 105.81 32.6661C106.826 32.1195 107.645 31.2996 108.27 30.2063C108.895 29.1131 109.207 27.7856 109.207 26.2238C109.207 24.6621 108.908 23.3476 108.309 22.2804C107.711 21.1872 106.917 20.3672 105.928 19.8206C104.938 19.274 103.871 19.0007 102.726 19.0007C101.581 19.0007 100.513 19.274 99.5243 19.8206C98.5612 20.3672 97.7933 21.1872 97.2207 22.2804C96.648 23.3476 96.3617 24.6621 96.3617 26.2238C96.3617 28.5405 96.9474 30.3365 98.1187 31.6119C99.316 32.8613 100.813 33.486 102.609 33.486ZM121.455 18.6884C122.21 17.6472 123.238 16.8012 124.54 16.1505C125.867 15.4737 127.338 15.1353 128.952 15.1353C130.852 15.1353 132.57 15.5909 134.105 16.5019C135.641 17.4129 136.851 18.7144 137.736 20.4063C138.621 22.0722 139.064 23.9853 139.064 26.1458C139.064 28.3062 138.621 30.2454 137.736 31.9633C136.851 33.6552 135.628 34.9827 134.066 35.9458C132.531 36.8829 130.826 37.3514 128.952 37.3514C127.286 37.3514 125.802 37.026 124.501 36.3753C123.225 35.7246 122.21 34.8916 121.455 33.8765V37H117.004V8.10742H121.455V18.6884ZM134.535 26.1458C134.535 24.6621 134.223 23.3866 133.598 22.3194C132.999 21.2262 132.192 20.4063 131.177 19.8597C130.188 19.287 129.121 19.0007 127.975 19.0007C126.856 19.0007 125.789 19.287 124.774 19.8597C123.785 20.4323 122.978 21.2653 122.353 22.3585C121.754 23.4517 121.455 24.7402 121.455 26.2238C121.455 27.7075 121.754 29.009 122.353 30.1283C122.978 31.2215 123.785 32.0544 124.774 32.6271C125.789 33.1997 126.856 33.486 127.975 33.486C129.121 33.486 130.188 33.1997 131.177 32.6271C132.192 32.0284 132.999 31.1694 133.598 30.0502C134.223 28.9309 134.535 27.6294 134.535 26.1458ZM140.811 26.1458C140.811 23.9853 141.253 22.0722 142.138 20.4063C143.049 18.7404 144.272 17.452 145.808 16.5409C147.37 15.6039 149.088 15.1353 150.962 15.1353C152.654 15.1353 154.125 15.4737 155.374 16.1505C156.649 16.8012 157.665 17.6211 158.419 18.6103V15.4867H162.91V37H158.419V33.7984C157.665 34.8135 156.636 35.6595 155.335 36.3363C154.033 37.013 152.55 37.3514 150.884 37.3514C149.036 37.3514 147.344 36.8829 145.808 35.9458C144.272 34.9827 143.049 33.6552 142.138 31.9633C141.253 30.2454 140.811 28.3062 140.811 26.1458ZM158.419 26.2238C158.419 24.7402 158.107 23.4517 157.482 22.3585C156.884 21.2653 156.09 20.4323 155.101 19.8597C154.112 19.287 153.044 19.0007 151.899 19.0007C150.754 19.0007 149.687 19.287 148.697 19.8597C147.708 20.4063 146.901 21.2262 146.277 22.3194C145.678 23.3866 145.379 24.6621 145.379 26.1458C145.379 27.6294 145.678 28.9309 146.277 30.0502C146.901 31.1694 147.708 32.0284 148.697 32.6271C149.713 33.1997 150.78 33.486 151.899 33.486C153.044 33.486 154.112 33.1997 155.101 32.6271C156.09 32.0544 156.884 31.2215 157.482 30.1283C158.107 29.009 158.419 27.7075 158.419 26.2238ZM171.528 33.3689H181.289V37H166.374V33.3689L176.174 19.1178H166.374V15.4867H181.289V19.1178L171.528 33.3689ZM183.308 26.1458C183.308 23.9853 183.75 22.0722 184.635 20.4063C185.546 18.7404 186.769 17.452 188.305 16.5409C189.867 15.6039 191.585 15.1353 193.459 15.1353C195.151 15.1353 196.622 15.4737 197.871 16.1505C199.146 16.8012 200.162 17.6211 200.916 18.6103V15.4867H205.406V37H200.916V33.7984C200.162 34.8135 199.133 35.6595 197.832 36.3363C196.53 37.013 195.047 37.3514 193.381 37.3514C191.533 37.3514 189.841 36.8829 188.305 35.9458C186.769 34.9827 185.546 33.6552 184.635 31.9633C183.75 30.2454 183.308 28.3062 183.308 26.1458ZM200.916 26.2238C200.916 24.7402 200.604 23.4517 199.979 22.3585C199.381 21.2653 198.587 20.4323 197.598 19.8597C196.609 19.287 195.541 19.0007 194.396 19.0007C193.251 19.0007 192.184 19.287 191.194 19.8597C190.205 20.4063 189.398 21.2262 188.774 22.3194C188.175 23.3866 187.876 24.6621 187.876 26.1458C187.876 27.6294 188.175 28.9309 188.774 30.0502C189.398 31.1694 190.205 32.0284 191.194 32.6271C192.21 33.1997 193.277 33.486 194.396 33.486C195.541 33.486 196.609 33.1997 197.598 32.6271C198.587 32.0544 199.381 31.2215 199.979 30.1283C200.604 29.009 200.916 27.7075 200.916 26.2238ZM214.532 18.6103C215.183 17.517 216.042 16.6711 217.109 16.0724C218.203 15.4477 219.491 15.1353 220.975 15.1353V19.7425H219.842C218.098 19.7425 216.771 20.185 215.86 21.07C214.975 21.955 214.532 23.4908 214.532 25.6772V37H210.081V15.4867H214.532V18.6103Z" fill="#1A1A1A"/>
<defs>
<clipPath id="clip0_2161_15533">
<rect width="39.044" height="39.044" fill="white" transform="translate(0 3.97798)"/>
</clipPath>
</defs>
</svg>
